<svg xmlns="http://www.w3.org/2000/svg" viewBox="0 0 871.3 339">
  <path fill="#006bac" d="M249.8 84.5l-7.3 2.3-200.9 63.3-5.6 1.8-3.6 1.1-1.8.5-1.6.6-2.4.7-1.9.7-1.6.8-.9.5-2 1.1-2.5 1.8-1.6 1.4-1.1 1.1-1.9 2.3-1 1.6-1.2 1.9-.6 1.5-1 2.5-.4.9 1.5-6.7 3.1-14.3 3.1-14 4.9-21.8 3.2-14.7 3-13.5.5-2.2.5-2.1.3-1.4.4-1.1.6-1.9.7-1.6.8-1.3.5-1.2.7-.9.4-.7 1-1.3 1.1-1.2 1.2-1.3.8-.7 1.2-1 1.3-1 1.8-1.1 1.1-.6 1-.6 1.2-.5 12.1-3.8L67.2 57l8.9-2.9 32.1-9.9 85.5-27 12.9-4.1 11.3-3.7 5.6-1.6 3.3-1 1.7-.3 1.7-.2 1.9-.4h1.9l1.9.2 1.9.2 1.5.3 1.4.4 2.2.6 2 .8 1.8.9 1.5.9 1.4 1 1.4 1.1 1.3 1.2.8.8 1.4 1.5 1.3 1.8 1.3 1.9.8 1.7.9 2.2.5 1.5.5 1.5.2 1.1.3 1.7.2 1.3v5l-.2 1.2-.3 1.8-.3 1.7-1.1 5z"/>
  <path fill="#006bac" d="M209.3 267.2l34.3 31.4 1 .9.9.7.8.6 1.3.9.9.6 1.3.7 1.7.7 1.4.6 1 .3 1.7.5 1.3.3 1.4.3 1.4.1 1.5.1h1.6l1.5-.1 1.1-.1 1.1-.2 1.3-.2.8-.2-4.7 1.5-8 2.6-10.6 3.3-10.1 3.2-11 3.5-20.4 6.4-18 5.6-1.7.6-1.5.5-1.6.5-2.2.5-2.4.5-2 .2h-3.5l-1.7-.2-1.9-.3-1.4-.3-1.3-.5-1.1-.3-1.4-.6-1.9-.9-1.7-.9-.9-.7-1.7-1.2-1.5-1.3-2.3-2.1-6.9-6.4L22.1 205.6l-3.6-3.3-1.7-1.6-.8-.7-.9-1-1.1-1.2-1.1-1.4-1.4-2.1-1.4-2.8-.7-1.9-.7-2.3-.5-2.3-.3-2.9-.1-2.7.2-1.9.4-2.3.6-2.6.9-2.4 1.2-2.6 1.5-2.3 1.6-2.1 1.6-1.8 1.3-1.2 1.5-1.1 1.1-.9 1.2-.8 1.9-.9 1.7-.9 1.5-.6 2.5-.8 4.6-1.4 3.8-1.2 8.8-2.8 8.4-2.6 8.6-2.8 7.4-2.2 1.2-.5z"/>
  <path fill="#ccc" d="M252.3 13.5l1.6 1.7 1.4 1.6 1.9 3 1.2 2.5.4 1.1.8 2.3.6 2.7.3 2.2V34.8l-.2 1.9-.2 1.7-.7 2.9-27.7 125.3-22.4 100.6 30.1 27.6 5.2 4.7 2.7 1.9 2.4 1.5 2.8 1.2 2.7.9 2.6.6 2.7.3h3l2.4-.3 1.9-.3 3-.8 2.4-.9 2.7-1.5 2.4-1.6 2.8-2.4 1.8-1.9 1.5-2.2 1.3-2.1 1.6-3.4 1-3.2 6.1-27.6 10.5-47.3 12.4-55.6 11-49.4.4-2.3.8-4.1.1-3-.1-2.9-.4-2.1-.5-2.2-.7-2.3-.9-2.1-1.4-2.5-1.6-2.2-2.2-2.6-22.5-20.6-29.6-27.1-12.5-11.5z"/>
  <path fill="none" stroke="#fff" stroke-width="4.653" stroke-miterlimit="3.864" d="M8.5 174.7l20.2-91.2c1-4.5 3.1-8.9 6.5-12.5 3.3-3.6 7.3-6.1 11.7-7.5L225.5 7.2c8.9-2.8 19-.9 26.4 5.8 7.4 6.8 10.1 16.8 8.1 25.9l-50.6 228.2m40.4-182.6l-223 70.3c-4.4 1.4-8.5 3.9-11.9 7.5-10.1 11-9.3 28.1 1.7 38.2l138 126.4c7.4 6.8 17.5 8.6 26.4 5.8l88.6-27.9M71.3 140.7l172.5 158.1c11 10.1 28.1 9.3 38.2-1.7 3.3-3.7 5.5-8 6.5-12.5l40.6-183c2-8.9-.9-18.7-8.2-25.4l-69-63.2" />
  <path fill="#1d1d1b" d="M178.3 138.9h.3l3.2 27.4h-18.3l14.8-27.4zm-41 51.7h13.1l7.8-14.4h25.2l1.8 14.4h11.9l-9.7-62.9h-13.1l-37 62.9zM202 190.6h11.5l4.9-22.1c1.6-6.2 3.9-16 11.6-16 2.9 0 5.3 2.2 5.3 5.6 0 2.8-1 7.1-1.6 9.9l-5 22.6h11.4l4.9-22.1c1.6-6.3 3.7-16 11.6-16 2.9 0 5.3 2.2 5.3 5.6 0 2.8-1 7.1-1.6 9.9l-5 22.6h11.4l5-22.2c1-3.8 2.1-8.5 2.2-12.6.1-7-5.4-12.7-12-12.7-6.1 0-12.6 2.8-15.6 8.8h-.2c-.5-5.6-5.8-8.8-11-8.8-5.4 0-10.5 2.5-13.6 7.3h-.2l1.1-6.2h-10.7c-.3 1.4-.7 3.3-1 5.1l-8.7 41.3zM280.2 190.6h11.4l4.9-22.1c1.6-6.2 3.9-16 11.6-16 2.9 0 5.3 2.2 5.3 5.6 0 2.8-1 7.1-1.6 9.9l-5 22.6h11.4l4.9-22.1c1.6-6.3 3.7-16 11.6-16 2.9 0 5.3 2.2 5.3 5.6 0 2.8-1 7.1-1.6 9.9l-5 22.6h11.4l5-22.2c1-3.8 2.1-8.5 2.2-12.6.1-7-5.4-12.7-12-12.7-6.1 0-12.6 2.8-15.6 8.8h-.2c-.5-5.6-5.8-8.8-11-8.8-5.4 0-10.5 2.5-13.6 7.3h-.2l1.1-6.2h-10.7c-.3 1.4-.7 3.3-1 5.1l-8.6 41.3zM401.1 171.1c.7-3.4 1.2-6.8 1.3-10.4.2-11.8-6.9-17.7-17.8-17.7-14.5 0-25.3 13.9-25.6 28.3-.2 13.8 8.2 20.3 20.9 20.3 4.7 0 9.6-1.2 14.1-2.6l1.6-9.5c-4.3 2.1-8.9 3.3-13.6 3.3-7.9 0-12.2-3.2-12-11.7h31.1zm-29.3-8.3c2.3-6.4 5.5-10.9 12.6-10.9 4.8 0 7.2 2.8 7.1 7.7 0 1.1-.1 2.1-.3 3.2h-19.4zM406.2 190.6h11.5l4.5-20.8c1.6-7.5 5.7-15.1 13.8-15.1 1.5 0 3.1.3 4.4.7l2.6-11.8c-1.4-.4-2.9-.5-4.4-.5-5.3 0-11 4.8-13.2 9.8h-.2l1.7-8.7h-11c-.4 2.2-.8 4.2-1.1 6.2l-8.6 40.2zM465.4 190.6h9.7c1.2-8.7 5.9-26.9 6-33.1.2-10.9-8.1-14.3-16.9-14.3-5.1 0-10.1 1-15 2.8l-1.8 9.6c4.6-2.3 9.5-3.6 14.5-3.6 4 0 8.8 1.4 8.7 6 0 1.4 0 2.7-.4 4h-4c-10.8 0-27.1 1.2-27.3 16.5-.1 8.6 5.4 13.2 13.4 13.2 6.3 0 10.3-3 14.3-8.2h.2l-1.4 7.1zM449.8 178c.1-7.8 9.4-8.8 15-8.8h4c-1.9 7.5-4.7 13.7-13.2 13.7-3-.1-5.8-1.7-5.8-4.9zM512.1 190.6h9.7c1.2-8.7 5.9-26.9 6-33.1.2-10.9-8.1-14.3-16.9-14.3-5.1 0-10.1 1-15 2.8l-1.8 9.6c4.6-2.3 9.5-3.6 14.5-3.6 4 0 8.8 1.4 8.7 6 0 1.4 0 2.7-.4 4h-4c-10.8 0-27.1 1.2-27.3 16.5-.1 8.6 5.4 13.2 13.4 13.2 6.3 0 10.3-3 14.3-8.2h.2l-1.4 7.1zM496.5 178c.1-7.8 9.4-8.8 15-8.8h4c-1.9 7.5-4.7 13.7-13.2 13.7-3-.1-5.8-1.7-5.8-4.9zM533.3 190.6h11.5l14.8-67.6h-11.5zM580.8 190.6h17c8.9 0 28.1-1.4 28.4-19.5.1-6.8-2.7-12.2-9.4-13.2v-.2c7-1.2 12.9-7.3 13-15 .2-11.4-8.5-15-17.8-15h-17.7l-13.5 62.9zm17.6-28.1h3.9c6.4 0 12.2 1 12.1 7.6-.2 9.7-8.4 10.6-15.8 10.6h-4.1l3.9-18.2zm5.4-24.9h4.2c4.5 0 10 .3 9.9 6.3-.1 7.4-6.8 9.2-12.8 9.2h-4.7l3.4-15.5zM674.8 171.1c.7-3.4 1.2-6.8 1.3-10.4.2-11.8-6.9-17.7-17.8-17.7-14.5 0-25.3 13.9-25.6 28.3-.2 13.8 8.2 20.3 20.9 20.3 4.7 0 9.6-1.2 14.1-2.6l1.6-9.5c-4.3 2.1-8.9 3.3-13.6 3.3-7.9 0-12.2-3.2-12-11.7h31.1zm-29.4-8.3c2.3-6.4 5.5-10.9 12.6-10.9 4.8 0 7.2 2.8 7.1 7.7 0 1.1-.1 2.1-.3 3.2h-19.4zM679 190.6h11.5l14.8-67.6h-11.5zM705.3 153h8.3l-3.5 15.7c-.8 3.7-1.6 7.2-1.6 10.8-.2 8.9 5.3 12.2 13.1 12.2 2 0 4.2-.6 6.2-1.1l2.1-9.4c-1.5.6-3.5 1.1-5.6 1.1-2.6 0-4.3-1.7-4.3-4.5 0-1.8.3-3.4.6-4.5l4.5-20.3h10.3l2-8.8h-10.3l3.1-13.8-12.4 4.2-2.1 9.5h-8.3l-2.1 8.9zM779.8 171.1c.7-3.4 1.2-6.8 1.3-10.4.2-11.8-6.9-17.7-17.8-17.7-14.5 0-25.3 13.9-25.6 28.3-.2 13.8 8.2 20.3 20.9 20.3 4.7 0 9.6-1.2 14.1-2.6l1.6-9.5c-4.3 2.1-8.9 3.3-13.6 3.3-7.9 0-12.2-3.2-12-11.7h31.1zm-29.4-8.3c2.3-6.4 5.5-10.9 12.6-10.9 4.8 0 7.2 2.8 7.1 7.7 0 1.1-.1 2.1-.3 3.2h-19.4zM824.9 144.9c-3.1-1-7.2-1.8-11.4-1.8-15.8 0-26.2 12.3-26.5 28.6-.2 12 7 20 18.4 20 3.8 0 7.5-.4 11.1-2.2l1.5-9.5c-3 1.5-6.5 2.3-9.4 2.3-7.9 0-9.7-6-9.5-12.1.2-8.7 5.4-17.7 14.6-17.7 3.2 0 6.1.8 8.3 2.3l2.9-9.9zM824.1 190.6h11.5l5.1-23.3c1.6-6.9 4.6-14.8 12.6-14.8 3.7 0 6.2 2.6 6.1 6.5-.1 3.4-.8 6.6-1.5 9.7l-4.7 21.9h11.5l5-22.5c.6-2.9 1.6-6.6 1.6-10.1.2-9.2-5.5-14.9-14.1-14.9-5 0-9.4 2.5-12.6 5.6h-.1l5.9-25.7h-11.5l-14.8 67.6z"/>
</svg>