<?xml version="1.0" encoding="utf-8"?>
<!-- Generator: Adobe Illustrator 16.0.0, SVG Export Plug-In . SVG Version: 6.00 Build 0)  -->
<!DOCTYPE svg PUBLIC "-//W3C//DTD SVG 1.1//EN" "http://www.w3.org/Graphics/SVG/1.1/DTD/svg11.dtd">
<svg version="1.1" id="Layer_1" xmlns="http://www.w3.org/2000/svg" xmlns:xlink="http://www.w3.org/1999/xlink" x="0px" y="0px"
	 width="120px" height="130px" viewBox="0 0 120 130" enable-background="new 0 0 120 130" xml:space="preserve">
<g>
	<g>
		<g opacity="0.15">
			<g>
				<defs>
					<rect id="SVGID_1_" x="14.087" y="1.001" width="94.678" height="98.104"/>
				</defs>
				<clipPath id="SVGID_2_">
					<use xlink:href="#SVGID_1_"  overflow="visible"/>
				</clipPath>
				<path clip-path="url(#SVGID_2_)" fill-rule="evenodd" clip-rule="evenodd" d="M14.088,1.001h93.155
					c0,0-0.423,26.532-0.423,40.412c0,12.657,1.215,49.836,1.851,56.69c0.062,0.662,0.202,1.035-0.052,1
					c-40.275-5.584-92.481-1.546-92.481-1.546l-2.05-93.772V1.001z"/>
			</g>
		</g>
	</g>
	<polygon fill-rule="evenodd" clip-rule="evenodd" fill="#006FBA" points="12.281,1.001 105.437,1.001 105.437,94.858 
		12.281,94.858 12.281,1.703 	"/>
	<path fill-rule="evenodd" clip-rule="evenodd" fill="#ED1B34" d="M18.285,33.959c2.377-2.063,29.287-24.119,78.781-10.471
		c-41.898-20.115-78.781,1.379-78.781,1.379V33.959z"/>
	<path fill-rule="evenodd" clip-rule="evenodd" fill="#ED1B34" d="M18.285,55.972c0,0,47.447,17.077,81.221-9.529v9.713
		C99.506,56.156,61.254,77.668,18.285,55.972z"/>
	<path fill-rule="evenodd" clip-rule="evenodd" fill="#FFFFFF" d="M17.048,24.111c0,0,39.485-23.437,83.679-0.177v33
		c0,0-39.409,22.568-83.679-0.193V24.111z M18.285,24.868c0,0,38.325-22.34,81.221-0.168v31.457c0,0-38.252,21.512-81.221-0.184
		V24.868z"/>
	<polygon fill-rule="evenodd" clip-rule="evenodd" fill="#ED1B34" points="93.395,41.892 90.349,41.892 90.349,44.948 
		87.301,44.948 87.301,41.892 84.254,41.892 84.254,38.837 87.301,38.837 87.301,35.78 90.349,35.78 90.349,38.837 93.395,38.837 	
		"/>
	<path fill-rule="evenodd" clip-rule="evenodd" fill="#FFFFFF" d="M24.393,46.374h3.917v-5.991h-3.917V46.374z M34.242,42.059
		l-5.315-7.923c-1.537,0-2.992,0.037-4.534,0.037v5.465h3.917l4.569,6.736h1.362h1.361l4.57-6.736v6.736h3.917v-6.736v-0.227v-5.239
		c-1.542,0-2.998-0.037-4.533-0.037L34.242,42.059z M46.009,34.136h19.368v4.394H57.96v7.841h-4.534V38.53h-7.417V34.136z
		 M67.153,34.136h4.243v4.375h5.768l3.481-4.375h5.149l-5.187,6.173l5.274,6.06h-5.296l-3.382-4.226h-5.809v4.229h-4.243V34.136z"/>
	<path fill="#ED1B34" d="M13.327,106.829c-0.326,0.112-0.656,0.235-0.993,0.37c-0.09-0.056-0.225-0.084-0.405-0.084
		c-0.044,0-0.106,0.022-0.185,0.067s-0.14,0.066-0.186,0.066c-0.022,0-0.056-0.008-0.101-0.025c-0.044-0.017-0.078-0.024-0.1-0.024
		c-0.09,0-0.217,0.022-0.38,0.067c-0.163,0.046-0.283,0.067-0.362,0.067c-0.078,0-0.123,0.012-0.135,0.034l0.051,0.051l-0.135-0.085
		c-0.168,0.045-0.371,0.067-0.606,0.067l-0.203,0.202c-0.146,0-0.208,0.012-0.185,0.033c-0.045-0.021-0.085-0.033-0.119-0.033
		c-0.359,0-0.685,0.123-0.977,0.371c-0.034-0.066-0.117-0.101-0.252-0.101c-0.057,0-0.129,0.034-0.219,0.101
		c-0.089,0.066-0.157,0.101-0.202,0.101c-0.337,0-0.718,0.399-1.146,1.196c-0.359,0.664-0.583,1.226-0.674,1.685
		c-0.258,0.326-0.477,0.849-0.657,1.566l-0.118-0.033v0.118c0.18,0.034,0.562,0.05,1.146,0.05l0.017-0.101
		c0.146-0.011,0.368-0.059,0.666-0.144c0.297-0.084,0.502-0.126,0.614-0.126c0.045,0,0.104,0.014,0.177,0.042
		c0.073,0.029,0.132,0.042,0.177,0.042c0.079,0,0.191-0.022,0.337-0.067c0.146-0.045,0.259-0.066,0.337-0.066l0.152-0.135
		l0.218,0.083l0.152-0.083c0.113,0,0.281-0.034,0.505-0.102c0.225-0.067,0.393-0.102,0.505-0.102c0.349,0,0.596,0.073,0.741,0.22
		l-0.707,0.168c-0.034,0.057-0.107,0.106-0.219,0.151l-0.202,0.219c-0.09-0.055-0.264-0.083-0.522-0.083l-0.051,0.067
		c0,0.077-0.157,0.122-0.472,0.134c-0.202,0.012-0.364,0.022-0.488,0.034l0.084,0.084l-0.151-0.118l-0.051,0.151l-0.084-0.151
		c-0.078,0.045-0.146,0.142-0.202,0.286l-0.085-0.135l-0.067,0.067l0.034,0.067c-0.034-0.033-0.089-0.05-0.168-0.05
		c-0.067-0.011-0.112,0-0.135,0.034l0.051,0.049l-0.118-0.083l-0.051,0.05c0.023,0.057,0.051,0.096,0.084,0.118
		c-0.067,0-0.16-0.009-0.277-0.024c-0.118-0.018-0.211-0.026-0.278-0.026c-0.022,0-0.039,0.006-0.051,0.018l0.084,0.084
		l-0.135-0.084c-0.045,0.033-0.118,0.084-0.219,0.151c-0.19,0.033-0.477,0.052-0.859,0.052c-0.584,0-0.965,0.342-1.146,1.026
		l-0.455,1.77l0.151,0.05c-0.022,0.18-0.034,0.36-0.034,0.539c0,0.82,0.18,1.23,0.54,1.23l0.051,0.017l-0.051,0.117
		c0.089,0,0.222,0.039,0.396,0.118c0.174,0.078,0.301,0.118,0.379,0.118c0.057,0,0.143-0.025,0.261-0.075
		c0.119-0.051,0.211-0.076,0.278-0.076c0.213,0,0.741-0.19,1.583-0.574c0.124-0.146,0.562-0.392,1.314-0.741
		c0.213-0.223,0.663-0.519,1.348-0.883c0.685-0.365,1.157-0.693,1.415-0.986l0.168,0.168c0,0.102,0.028,0.169,0.084,0.202
		c-0.606,0.541-1.185,1.062-1.735,1.566c-0.112,0.081-0.41,0.243-0.894,0.489c-0.336,0.158-0.831,0.41-1.482,0.759
		c-0.235,0.135-0.477,0.27-0.724,0.404c-0.033,0.045-0.062,0.073-0.084,0.084c-0.067,0.011-0.162,0.027-0.286,0.051l-0.236,0.202
		c-0.034-0.034-0.09-0.051-0.168-0.051c-0.18,0-0.292,0.084-0.336,0.253c-0.27,0.022-0.697,0.034-1.281,0.034
		c-0.045,0-0.084-0.022-0.118-0.068c-0.033-0.045-0.062-0.073-0.084-0.084l-0.168-0.135l0.035-0.034
		c-0.068-0.021-0.119-0.033-0.152-0.033c-0.067,0.022-0.14,0.045-0.219,0.067c-0.011-0.157-0.157-0.377-0.438-0.657
		c0-0.269-0.084-0.499-0.252-0.69l0.118-0.135c-0.023-0.157-0.107-0.336-0.253-0.538l0.303-1.466
		c0.09-0.438,0.264-0.899,0.522-1.382l-0.236-0.168H3.421c-0.056,0-0.298,0.078-0.725,0.235s-0.747,0.236-0.96,0.236
		c-0.326-0.169-0.489-0.354-0.489-0.556c0-0.271,0.124-0.404,0.371-0.404l0.118-0.152c0.247,0,0.628-0.079,1.146-0.236
		c0.517-0.157,0.887-0.236,1.112-0.236c0.158,0,0.275-0.14,0.354-0.421c0.021-0.066,0.05-0.168,0.084-0.303l0.101-0.304
		c0.37-0.741,0.555-1.179,0.555-1.313c0.124-0.089,0.264-0.338,0.421-0.742c0.169-0.46,0.287-0.734,0.354-0.825
		c-0.034-0.034-0.074-0.089-0.119-0.169c-0.022,0.013-0.076,0.071-0.16,0.178c-0.084,0.106-0.16,0.159-0.227,0.159
		c0,0-0.101-0.033-0.304-0.101c-0.157-0.055-0.269-0.145-0.336-0.27c-0.022-0.067-0.079-0.156-0.168-0.27
		c0.078-0.111,0.146-0.259,0.202-0.437c0.225-0.057,0.556-0.153,0.994-0.287l0.708-0.287l0.354,0.067l0.203-0.202h0.135
		c0.224,0,0.404,0.017,0.539,0.05l0.336-0.201c0.068,0,0.166-0.022,0.295-0.067c0.129-0.045,0.222-0.067,0.277-0.067
		c0.023,0,0.056,0.014,0.101,0.042c0.045,0.028,0.08,0.042,0.101,0.042c0.08,0,0.186-0.036,0.32-0.108
		c0.135-0.074,0.236-0.11,0.303-0.11c0.068,0,0.172,0.015,0.312,0.043c0.141,0.026,0.244,0.041,0.312,0.041
		c0.034,0,0.093-0.025,0.177-0.074c0.084-0.052,0.144-0.077,0.177-0.077c0.225-0.021,0.525-0.051,0.902-0.084
		c0.376-0.034,0.542-0.051,0.497-0.051c0.067,0,0.17,0.022,0.312,0.067c0.14,0.046,0.244,0.067,0.312,0.067
		c0.057,0,0.143-0.021,0.261-0.067c0.118-0.045,0.21-0.067,0.278-0.067C13.147,106.576,13.271,106.66,13.327,106.829
		 M16.222,112.271c-0.023,0.021-0.04,0.033-0.051,0.033l0.034-0.066C16.216,112.248,16.222,112.259,16.222,112.271 M17.451,112.522
		c-0.056,0.091-0.101,0.181-0.135,0.27l-0.134,0.287c-0.034,0.146-0.09,0.365-0.168,0.657c-0.146,0.449-0.388,1.056-0.725,1.819
		l-0.269,0.624c-0.663,1.525-0.955,2.446-0.876,2.761c-0.157,0.158-0.309,0.236-0.455,0.236c-0.068,0-0.154-0.024-0.262-0.075
		c-0.106-0.051-0.193-0.076-0.261-0.076c0.011-0.077,0.079-0.18,0.203-0.303l-0.051-0.051l-0.067,0.018
		c0.495-1.191,1.067-2.746,1.718-4.667h0.018c0.034-0.033,0.05-0.096,0.05-0.185l-0.016-0.051l-0.085,0.084h-0.083
		c-0.101,0.09-0.245,0.222-0.43,0.396s-0.334,0.318-0.446,0.43l0.016,0.118c-0.314,0.056-0.595,0.342-0.842,0.859
		c-0.146,0-0.32,0.122-0.522,0.37c-0.202,0.247-0.334,0.371-0.395,0.371c-0.062,0-0.278,0.275-0.649,0.824
		c-0.225,0.337-0.443,0.643-0.657,0.911h-0.287c-0.091,0-0.194-0.121-0.312-0.363c-0.117-0.241-0.233-0.379-0.345-0.413
		c0.19-0.168,0.409-0.415,0.657-0.741V116.6c0-0.19,0.095-0.427,0.287-0.707c0-0.023-0.012-0.058-0.034-0.101
		c0-0.169,0.082-0.438,0.244-0.809c0.163-0.371,0.244-0.646,0.244-0.826c0-0.045-0.005-0.115-0.017-0.21
		c-0.012-0.097-0.017-0.166-0.017-0.211c0-0.225,0.082-0.427,0.245-0.607c0.163-0.179,0.356-0.28,0.581-0.303
		c0.348,0.202,0.521,0.421,0.521,0.657c-0.19,0.438-0.465,1.102-0.825,1.987l0.084,0.118c0.741-0.707,1.831-1.779,3.269-3.218
		v-0.101c0.044-0.046,0.095-0.112,0.151-0.202c0.057-0.091,0.118-0.135,0.186-0.135c0.057,0,0.138,0.011,0.244,0.033
		c0.107,0.022,0.188,0.034,0.245,0.034c0.169,0.169,0.309,0.337,0.421,0.505L17.451,112.522z M22.92,112.085
		c0,0.146-0.135,0.398-0.404,0.759c-0.281,0.393-0.438,0.673-0.472,0.842c-0.056,0.068-0.141,0.241-0.252,0.522
		c-0.102,0.214-0.219,0.371-0.354,0.472c-0.236,0.65-0.635,1.656-1.196,3.015l0.152,0.067c-0.18,0.226-0.27,0.438-0.27,0.641v0.202
		l-0.132-0.051c-0.045,0.067-0.101,0.371-0.166,0.91c-0.124,0.158-0.421,0.933-0.895,2.325c-0.245,0.641-0.498,1.443-0.765,2.409
		c-0.087,0.111-0.132,0.208-0.132,0.285c0,0.034,0.005,0.068,0.017,0.102c-0.168,0.226-0.416,0.565-0.742,1.02
		c-0.325,0.455-0.483,0.817-0.471,1.086c-0.135,0-0.242,0.057-0.32,0.169c-0.079,0.112-0.106,0.235-0.084,0.37
		c-0.124,0.012-0.365,0.23-0.725,0.658c-0.067,0.077-0.112,0.129-0.135,0.151l-0.573,0.387c-0.09,0.022-0.314,0.119-0.674,0.287
		c-0.404,0.191-0.635,0.286-0.691,0.286c-0.033,0-0.081-0.022-0.143-0.067s-0.109-0.067-0.143-0.067
		c-0.034,0-0.099,0.022-0.194,0.067c-0.096,0.045-0.16,0.067-0.194,0.067c-0.056,0-0.266-0.154-0.631-0.464
		c-0.365-0.308-0.576-0.435-0.632-0.378c-0.527-1.146-0.792-1.871-0.792-2.174l0.084-0.135c0-0.169,0.051-0.443,0.152-0.826
		c0.281-1.065,0.584-1.891,0.91-2.476c0.427-0.775,1.022-1.415,1.785-1.921l0.321,0.236l-0.556,0.623
		c-0.124,0.136-0.303,0.343-0.54,0.623c-0.415,0.528-0.65,1.01-0.707,1.45c-0.067,0.089-0.188,0.435-0.362,1.035
		c-0.175,0.601-0.261,0.968-0.261,1.103c0,0.326,0.14,0.781,0.421,1.365c0.315,0.651,0.601,0.978,0.859,0.978
		c0.91,0,1.915-0.533,3.016-1.601c0.011-0.023,0.034-0.051,0.067-0.085l-0.067-0.117c0.112-0.09,0.219-0.134,0.32-0.134
		c0.067-0.102,0.112-0.243,0.135-0.423c0.067-0.033,0.129-0.062,0.185-0.084c0.101-0.066,0.236-0.274,0.404-0.623
		c0.191-0.393,0.298-0.674,0.32-0.843c0.112-0.112,0.244-0.393,0.396-0.842c0.151-0.448,0.295-0.724,0.43-0.825l-0.101-0.067
		c0.124-0.168,0.264-0.472,0.42-0.91c0.135-0.37,0.276-0.674,0.422-0.91l0.101-0.572c0.023-0.146,0.062-0.343,0.117-0.589
		c0.124-0.574,0.242-0.917,0.354-1.028l-0.118-0.051v-0.27l0.151,0.085c-0.022-0.046-0.034-0.091-0.034-0.137
		c0-0.392,0.124-0.64,0.371-0.741c-0.056-0.055-0.141-0.083-0.252-0.083c-0.034,0-0.099,0.082-0.194,0.244
		c-0.096,0.164-0.188,0.245-0.279,0.245c-0.089,0-0.387,0.319-0.892,0.959c-0.067-0.021-0.107-0.033-0.118-0.033
		c-0.135,0-0.304,0.051-0.506,0.151h-0.202c-0.056-0.18-0.19-0.274-0.404-0.286l0.033-0.05c0-0.158-0.056-0.371-0.168-0.641
		c0.146-0.281,0.297-0.686,0.455-1.213l0.017,0.018l0.202-0.136l-0.118-0.051c0.146-0.225,0.359-0.563,0.641-1.01
		c0.281-0.45,0.495-0.787,0.64-1.012c0.449-0.493,0.831-0.932,1.146-1.314c0.371-0.459,0.797-0.954,1.28-1.482
		c0.584-0.135,0.898-0.201,0.943-0.201c0.079,0,0.23,0.097,0.455,0.294S22.92,112.006,22.92,112.085 M20.933,113.771
		c0-0.146-0.084-0.299-0.253-0.456c-0.202,0.247-0.488,0.63-0.859,1.146c-0.774,1.034-1.392,1.988-1.853,2.864
		c0.022,0.091,0.039,0.196,0.05,0.32c0-0.135,0.062-0.201,0.186-0.201c0.112,0,0.162,0.021,0.151,0.066
		c0.314-0.404,0.505-0.607,0.573-0.607s0.135-0.081,0.202-0.243s0.121-0.244,0.16-0.244s0.115-0.057,0.228-0.168l0.135-0.135
		c0.034-0.034,0.062-0.057,0.084-0.068v-0.017c-0.022-0.202,0.264-0.708,0.859-1.516c0.044-0.181,0.084-0.315,0.118-0.404
		C20.781,113.927,20.854,113.815,20.933,113.771 M27.089,109.136c-0.056,0.079-0.151,0.248-0.287,0.506h-0.707
		c-0.034,0-0.129-0.157-0.286-0.471c-0.034-0.067-0.062-0.13-0.084-0.187c0.292-0.394,0.528-0.588,0.707-0.588
		C26.579,108.396,26.797,108.643,27.089,109.136 M25.489,112.894c-1.573,2.955-2.358,4.644-2.358,5.071v0.758
		c-0.045,0.057-0.067,0.112-0.067,0.168c0,0.022,0.005,0.045,0.017,0.067h-0.068c-0.09-0.01-0.213,0.062-0.371,0.219
		c-0.124-0.067-0.292-0.168-0.505-0.303c0.225-1.033,0.517-1.977,0.876-2.83c0.113-0.181,0.258-0.46,0.438-0.843
		c0-0.089,0.096-0.337,0.287-0.741c0.191-0.404,0.275-0.668,0.252-0.792c0.191-0.09,0.287-0.18,0.287-0.269
		c0-0.202-0.096-0.382-0.287-0.539c0.271-0.214,0.557-0.461,0.86-0.741c0.28,0.022,0.443,0.185,0.488,0.488
		C25.371,112.82,25.422,112.917,25.489,112.894 M30.574,112.271c-0.023,0.021-0.039,0.033-0.05,0.033l0.034-0.066
		C30.568,112.248,30.574,112.259,30.574,112.271 M31.804,112.522c-0.057,0.091-0.101,0.181-0.135,0.27l-0.135,0.287
		c-0.034,0.146-0.09,0.365-0.168,0.657c-0.146,0.449-0.388,1.056-0.725,1.819l-0.27,0.624c-0.663,1.525-0.954,2.446-0.876,2.761
		c-0.157,0.158-0.308,0.236-0.454,0.236c-0.067,0-0.155-0.024-0.261-0.075s-0.194-0.076-0.261-0.076
		c0.011-0.077,0.078-0.18,0.202-0.303l-0.05-0.051l-0.068,0.018c0.494-1.191,1.067-2.746,1.719-4.667h0.017
		c0.033-0.033,0.051-0.096,0.051-0.185l-0.018-0.051l-0.083,0.084h-0.084c-0.1,0.09-0.244,0.222-0.43,0.396
		c-0.185,0.174-0.334,0.318-0.446,0.43l0.017,0.118c-0.314,0.056-0.595,0.342-0.842,0.859c-0.146,0-0.32,0.122-0.522,0.37
		c-0.202,0.247-0.334,0.371-0.396,0.371c-0.062,0-0.278,0.275-0.648,0.824c-0.225,0.337-0.443,0.643-0.657,0.911h-0.286
		c-0.09,0-0.194-0.121-0.312-0.363c-0.118-0.241-0.232-0.379-0.345-0.413c0.191-0.168,0.41-0.415,0.657-0.741V116.6
		c0-0.19,0.096-0.427,0.286-0.707c0-0.023-0.011-0.058-0.034-0.101c0-0.169,0.082-0.438,0.244-0.809
		c0.164-0.371,0.244-0.646,0.244-0.826c0-0.045-0.004-0.115-0.016-0.21c-0.011-0.097-0.017-0.166-0.017-0.211
		c0-0.225,0.081-0.427,0.244-0.607c0.163-0.179,0.357-0.28,0.581-0.303c0.349,0.202,0.522,0.421,0.522,0.657
		c-0.191,0.438-0.466,1.102-0.826,1.987l0.085,0.118c0.741-0.707,1.83-1.779,3.268-3.218v-0.101
		c0.045-0.046,0.095-0.112,0.151-0.202c0.057-0.091,0.118-0.135,0.186-0.135c0.056,0,0.137,0.011,0.245,0.033
		c0.106,0.022,0.188,0.034,0.244,0.034c0.168,0.169,0.309,0.337,0.421,0.505L31.804,112.522z M36.967,117.004
		c-0.202,0.124-0.438,0.349-0.708,0.675c-0.022,0.044-0.054,0.069-0.092,0.075c-0.04,0.005-0.06,0.028-0.06,0.066
		c0,0.04-0.202,0.211-0.605,0.515c-0.168,0.124-0.422,0.291-0.758,0.505l-0.152,0.135c-0.146,0-0.361,0.065-0.648,0.194
		c-0.287,0.128-0.502,0.193-0.649,0.193c-0.067,0-0.222-0.062-0.463-0.186c-0.242-0.123-0.436-0.174-0.581-0.151
		c0.034-0.011,0.073-0.039,0.118-0.085c-0.067-0.021-0.196-0.134-0.387-0.336c-0.191-0.202-0.326-0.303-0.405-0.303
		c0.012-0.034,0.018-0.096,0.018-0.185c0-0.26-0.028-0.479-0.085-0.658c0.079-0.034,0.119-0.124,0.119-0.27
		c0-0.234-0.09-0.376-0.27-0.421c0.056-0.067,0.146-0.247,0.27-0.54c0.079-0.033,0.157-0.23,0.235-0.59
		c0.102-0.033,0.163-0.101,0.186-0.201c0.034-0.021,0.151-0.163,0.354-0.421c0.203-0.259,0.303-0.393,0.303-0.404
		s-0.011-0.027-0.033-0.051c0.09-0.033,0.292-0.247,0.606-0.641c0.057-0.078,0.113-0.157,0.168-0.235l-0.033-0.018
		c0.01-0.044,0.061-0.084,0.151-0.117l0.809-0.792c0.415-0.404,0.679-0.606,0.792-0.606c0.674,0,1.117,0.202,1.33,0.606
		c-0.022,0.472-0.252,0.955-0.69,1.449c-0.427,0.382-0.836,0.771-1.229,1.161c-0.023,0.047-0.085,0.068-0.186,0.068
		c-0.044,0.022-0.112,0.084-0.202,0.186c-0.089,0.044-0.19,0.102-0.303,0.169l0.034,0.067c-0.439,0.09-0.775,0.359-1.012,0.807
		c-0.021-0.01-0.05-0.021-0.083-0.033c-0.147,0-0.225,0.04-0.236,0.119c0.022,0.033,0.05,0.062,0.084,0.083l-0.152-0.066
		l-0.168,0.758c0,0.168,0.083,0.365,0.253,0.591c0.168,0.224,0.331,0.336,0.487,0.336c0.023,0,0.046,0.011,0.068,0.034
		c0.023,0.021,0.044,0.033,0.067,0.033c0.101,0,0.255-0.012,0.462-0.033c0.208-0.023,0.363-0.034,0.463-0.034
		c0.135-0.112,0.304-0.168,0.506-0.168c0.045,0,0.174-0.097,0.388-0.287c0.213-0.191,0.381-0.293,0.505-0.304l0.018-0.05
		l-0.102-0.051c0.236-0.236,0.382-0.354,0.438-0.354c0.023,0,0.045,0.007,0.068,0.018l-0.034,0.101v0.017l0.135-0.318
		c0.044,0,0.135-0.038,0.27-0.11s0.247-0.11,0.337-0.11h0.067C36.792,116.868,36.866,116.925,36.967,117.004 M35.518,113.062
		c-0.045-0.044-0.118-0.067-0.22-0.067c-0.146,0-0.511,0.32-1.094,0.961c-0.236,0.282-0.596,0.696-1.078,1.246l0.168,0.101
		l-0.034-0.083c0.023-0.045,0.051-0.063,0.084-0.052l0.219,0.052c0.146-0.135,0.405-0.343,0.775-0.624l0.084,0.085l0.084-0.151
		c0.169,0,0.545-0.511,1.129-1.534L35.518,113.062z M41.896,117.004c-0.202,0.124-0.438,0.349-0.707,0.675
		c-0.022,0.044-0.053,0.069-0.093,0.075c-0.04,0.005-0.059,0.028-0.059,0.066c0,0.04-0.202,0.211-0.606,0.515
		c-0.168,0.124-0.421,0.291-0.758,0.505l-0.151,0.135c-0.146,0-0.362,0.065-0.648,0.194c-0.287,0.128-0.502,0.193-0.648,0.193
		c-0.068,0-0.223-0.062-0.464-0.186c-0.242-0.123-0.435-0.174-0.581-0.151c0.033-0.011,0.072-0.039,0.117-0.085
		c-0.067-0.021-0.197-0.134-0.388-0.336s-0.326-0.303-0.404-0.303c0.011-0.034,0.017-0.096,0.017-0.185
		c0-0.26-0.028-0.479-0.084-0.658c0.079-0.034,0.118-0.124,0.118-0.27c0-0.234-0.09-0.376-0.27-0.421
		c0.056-0.067,0.146-0.247,0.27-0.54c0.079-0.033,0.158-0.23,0.236-0.59c0.101-0.033,0.163-0.101,0.185-0.201
		c0.034-0.021,0.152-0.163,0.354-0.421c0.202-0.259,0.303-0.393,0.303-0.404s-0.012-0.027-0.034-0.051
		c0.089-0.033,0.292-0.247,0.606-0.641c0.056-0.078,0.112-0.157,0.168-0.235l-0.034-0.018c0.011-0.044,0.062-0.084,0.152-0.117
		l0.808-0.792c0.416-0.404,0.679-0.606,0.792-0.606c0.674,0,1.117,0.202,1.331,0.606c-0.022,0.472-0.252,0.955-0.691,1.449
		c-0.426,0.382-0.836,0.771-1.229,1.161c-0.023,0.047-0.084,0.068-0.186,0.068c-0.044,0.022-0.112,0.084-0.202,0.186
		c-0.09,0.044-0.191,0.102-0.303,0.169l0.034,0.067c-0.438,0.09-0.775,0.359-1.011,0.807c-0.022-0.01-0.051-0.021-0.084-0.033
		c-0.146,0-0.224,0.04-0.236,0.119c0.023,0.033,0.05,0.062,0.084,0.083l-0.152-0.066l-0.167,0.758c0,0.168,0.083,0.365,0.252,0.591
		c0.168,0.224,0.332,0.336,0.488,0.336c0.023,0,0.045,0.011,0.067,0.034c0.023,0.021,0.045,0.033,0.067,0.033
		c0.101,0,0.256-0.012,0.463-0.033c0.208-0.023,0.362-0.034,0.463-0.034c0.135-0.112,0.303-0.168,0.505-0.168
		c0.045,0,0.174-0.097,0.388-0.287c0.213-0.191,0.382-0.293,0.505-0.304l0.017-0.05l-0.101-0.051
		c0.236-0.236,0.381-0.354,0.438-0.354c0.023,0,0.044,0.007,0.067,0.018l-0.034,0.101v0.017l0.135-0.318
		c0.045,0,0.135-0.038,0.27-0.11c0.134-0.072,0.247-0.11,0.336-0.11h0.067C41.723,116.868,41.795,116.925,41.896,117.004
		 M40.448,113.062c-0.045-0.044-0.118-0.067-0.219-0.067c-0.146,0-0.511,0.32-1.096,0.961c-0.236,0.282-0.595,0.696-1.078,1.246
		l0.169,0.101l-0.035-0.083c0.023-0.045,0.051-0.063,0.084-0.052l0.22,0.052c0.146-0.135,0.403-0.343,0.774-0.624l0.084,0.085
		l0.083-0.151c0.169,0,0.545-0.511,1.129-1.534L40.448,113.062z M47.687,112.405c0,0.337-0.466,1.55-1.398,3.639
		c-0.09-0.033-0.292-0.062-0.607-0.084c-0.011-0.091-0.016-0.158-0.016-0.202v-0.052c0.022-0.156,0.073-0.392,0.151-0.707
		c0.022-0.056,0.045-0.072,0.068-0.05l0.083,0.05c0.022-0.156,0.051-0.387,0.084-0.689c0.034-0.271,0.141-0.45,0.321-0.539
		l-0.051-0.287l-0.471,0.304c-0.068,0.044-0.158,0.105-0.271,0.185c-0.348,0.248-0.521,0.438-0.521,0.573l0.067,0.084
		c-0.056,0.022-0.219,0.191-0.489,0.505c-0.336,0.293-0.701,0.772-1.094,1.441c-0.394,0.668-0.59,1.153-0.59,1.456v0.22
		c-0.076,0.056-0.23,0.219-0.461,0.488c-0.143,0.168-0.368,0.309-0.677,0.422c0-0.068-0.067-0.152-0.199-0.254
		c-0.132-0.101-0.196-0.173-0.196-0.218c0.033-0.046,0.101-0.202,0.202-0.473v-0.051c0-0.258,0.213-0.842,0.64-1.751
		c0.427-0.909,0.64-1.551,0.64-1.92c0-0.068-0.019-0.167-0.058-0.296c-0.04-0.129-0.059-0.222-0.059-0.278
		c0.179-0.382,0.371-0.571,0.573-0.571c0.303,0,0.516,0.05,0.64,0.151c0.056,0.044,0.106,0.162,0.151,0.353
		c0.045,0.191,0.101,0.327,0.169,0.404c0.224-0.292,0.651-0.719,1.28-1.279c0.708-0.63,1.162-0.944,1.365-0.944h0.404
		c-0.012,0.057,0.05,0.129,0.185,0.219C47.642,112.287,47.687,112.338,47.687,112.405 M52.448,117.004
		c-0.202,0.124-0.438,0.349-0.708,0.675c-0.022,0.044-0.053,0.069-0.092,0.075c-0.04,0.005-0.059,0.028-0.059,0.066
		c0,0.04-0.202,0.211-0.606,0.515c-0.168,0.124-0.42,0.291-0.758,0.505l-0.151,0.135c-0.146,0-0.362,0.065-0.648,0.194
		c-0.287,0.128-0.504,0.193-0.649,0.193c-0.067,0-0.222-0.062-0.463-0.186c-0.241-0.123-0.436-0.174-0.581-0.151
		c0.034-0.011,0.073-0.039,0.119-0.085c-0.068-0.021-0.197-0.134-0.388-0.336c-0.192-0.202-0.326-0.303-0.405-0.303
		c0.011-0.034,0.017-0.096,0.017-0.185c0-0.26-0.027-0.479-0.083-0.658c0.078-0.034,0.117-0.124,0.117-0.27
		c0-0.234-0.089-0.376-0.27-0.421c0.056-0.067,0.146-0.247,0.27-0.54c0.079-0.033,0.158-0.23,0.236-0.59
		c0.101-0.033,0.163-0.101,0.186-0.201c0.034-0.021,0.152-0.163,0.354-0.421c0.202-0.259,0.303-0.393,0.303-0.404
		s-0.011-0.027-0.033-0.051c0.089-0.033,0.292-0.247,0.606-0.641c0.056-0.078,0.113-0.157,0.169-0.235l-0.033-0.018
		c0.011-0.044,0.061-0.084,0.151-0.117l0.809-0.792c0.416-0.404,0.679-0.606,0.792-0.606c0.674,0,1.118,0.202,1.332,0.606
		c-0.023,0.472-0.253,0.955-0.691,1.449c-0.427,0.382-0.836,0.771-1.23,1.161c-0.022,0.047-0.084,0.068-0.186,0.068
		c-0.044,0.022-0.112,0.084-0.202,0.186c-0.09,0.044-0.191,0.102-0.303,0.169l0.034,0.067c-0.438,0.09-0.775,0.359-1.011,0.807
		c-0.022-0.01-0.051-0.021-0.084-0.033c-0.146,0-0.225,0.04-0.236,0.119c0.022,0.033,0.051,0.062,0.084,0.083L48,116.769
		l-0.168,0.758c0,0.168,0.084,0.365,0.253,0.591c0.168,0.224,0.332,0.336,0.488,0.336c0.023,0,0.045,0.011,0.067,0.034
		c0.022,0.021,0.045,0.033,0.067,0.033c0.101,0,0.256-0.012,0.463-0.033c0.208-0.023,0.362-0.034,0.463-0.034
		c0.134-0.112,0.303-0.168,0.505-0.168c0.045,0,0.174-0.097,0.387-0.287c0.213-0.191,0.382-0.293,0.505-0.304l0.017-0.05
		l-0.101-0.051c0.236-0.236,0.382-0.354,0.438-0.354c0.022,0,0.045,0.007,0.067,0.018l-0.034,0.101v0.017l0.135-0.318
		c0.044,0,0.135-0.038,0.27-0.11c0.135-0.072,0.248-0.11,0.337-0.11h0.067C52.275,116.868,52.347,116.925,52.448,117.004
		 M50.999,113.062c-0.044-0.044-0.117-0.067-0.218-0.067c-0.146,0-0.511,0.32-1.095,0.961c-0.236,0.282-0.595,0.696-1.078,1.246
		l0.168,0.101l-0.034-0.083c0.022-0.045,0.051-0.063,0.084-0.052l0.219,0.052c0.146-0.135,0.404-0.343,0.775-0.624l0.084,0.085
		l0.084-0.151c0.168,0,0.544-0.511,1.129-1.534L50.999,113.062z M60.073,107.621c-0.179,0.247-0.359,0.628-0.539,1.146
		c-0.135,0.078-0.353,0.495-0.656,1.246c-0.157,0.011-0.365,0.294-0.624,0.851c-0.258,0.557-0.387,0.941-0.387,1.154l-0.152-0.068
		l-0.573,1.686c-0.281,0.865-0.42,1.427-0.42,1.685c-0.168,0.125-0.253,0.338-0.253,0.641c0,0.124,0.028,0.202,0.085,0.235
		c-0.057,0.058-0.141,0.124-0.253,0.202l0.101,0.085c-0.135,0.169-0.225,0.981-0.27,2.442l-0.034-0.018
		c-0.033,0-0.087,0.018-0.16,0.051c-0.073,0.034-0.132,0.051-0.176,0.051c0,0-0.084-0.034-0.252-0.102l-0.169-0.067
		c-0.057-0.021-0.102-0.033-0.135-0.033l-0.084,0.033l0.117-0.134l-0.202-0.118v-0.876c0.135-0.214,0.326-0.54,0.573-0.978
		c0-0.111,0.021-0.271,0.059-0.479c0.04-0.208,0.06-0.368,0.06-0.479l-0.236-0.237c-0.034,0.091-0.068,0.225-0.101,0.405
		c-0.181,0.122-0.528,0.482-1.044,1.078c-0.101,0.122-0.164,0.201-0.186,0.235c-0.011,0.112-0.117,0.197-0.319,0.253l0.084,0.084
		c-0.158,0.057-0.5,0.32-1.027,0.792c-0.45,0.415-0.798,0.623-1.045,0.623c-0.078,0-0.134-0.028-0.168-0.084l-0.151,0.151
		c-0.034-0.079-0.175-0.157-0.422-0.236l0.119-0.134l-0.119-0.17l0.051-0.066l-0.135-0.017c0.09-0.326,0.157-0.774,0.203-1.348
		l0.168,0.033c0.034-0.045,0.051-0.122,0.051-0.236c0-0.044,0.146-0.201,0.438-0.472c0.057-0.056,0.147-0.14,0.27-0.251l0.271-0.236
		l-0.152-0.067c0.651-0.753,1.926-2.078,3.824-3.977c0.203-0.045,0.304-0.128,0.304-0.253l0.067-0.033
		c0.023,0,0.073,0.011,0.152,0.033c0.079,0.023,0.14,0.028,0.186,0.018l-0.051-0.102h0.051c0.326,0,0.488-0.343,0.488-1.027
		c0.573-1.033,0.836-1.663,0.792-1.888l0.152,0.067c0.258-0.572,0.41-0.897,0.455-0.977c0.247-0.415,0.494-0.623,0.741-0.623
		C59.636,107.115,59.849,107.284,60.073,107.621 M56.216,113.146c-0.169,0.056-0.304,0.106-0.405,0.151l0.119,0.135l-0.034,0.033
		c-0.045-0.033-0.124-0.072-0.235-0.116c-0.483,0.481-1.191,1.218-2.123,2.206c-1.033,1.135-1.55,1.898-1.55,2.292
		c0,0.111,0.04,0.207,0.118,0.285c0.022-0.034,0.05-0.05,0.084-0.05c0.022,0,0.044,0.005,0.067,0.016l1.5-1.466
		c0.517-0.516,0.972-1.044,1.365-1.582c0.078,0.022,0.135-0.06,0.168-0.245s0.129-0.289,0.286-0.311
		c0-0.035-0.006-0.063-0.017-0.085c0-0.113,0.129-0.298,0.387-0.557C55.98,113.73,56.069,113.494,56.216,113.146 M71.216,106.997
		c0,0.057-0.073,0.196-0.22,0.422c-0.146,0.225-0.218,0.376-0.218,0.455l-0.018-0.035c-0.057,0.013-0.146,0.054-0.27,0.127
		c-0.124,0.072-0.213,0.109-0.27,0.109c-0.169,0-0.359-0.135-0.572-0.404l0.05,0.034c0.057,0,0.139-0.07,0.245-0.211
		c0.105-0.14,0.171-0.21,0.193-0.21c-0.113-0.112-0.259-0.236-0.438-0.371h-0.572c-0.394,0-0.646,0.102-0.758,0.303h0.017
		c0-0.033-0.057-0.051-0.169-0.051c0,0.034-0.027,0.079-0.084,0.136c-0.057-0.011-0.09-0.028-0.101-0.052
		c-0.034,0-0.253,0.103-0.657,0.305l-0.068,0.033c-0.101,0-0.243,0.135-0.429,0.404c-0.186,0.271-0.278,0.467-0.278,0.589
		c0,0.226,0.629,0.972,1.888,2.241l0.084,0.017c0.169,0.034,0.521,0.388,1.062,1.062c0.505,0.629,0.796,1.062,0.875,1.298
		c0.09,0.09,0.188,0.329,0.295,0.715c0.107,0.388,0.16,0.661,0.16,0.817c0,0.102-0.034,0.244-0.101,0.43
		c-0.068,0.186-0.102,0.329-0.102,0.43c-0.258,0.158-0.387,0.354-0.387,0.591c0,0.077,0.005,0.14,0.016,0.185
		c-0.111,0.022-0.3,0.166-0.564,0.43c-0.264,0.264-0.406,0.396-0.429,0.396v0.117c-0.044,0-0.107,0.018-0.186,0.051l0.067,0.086
		c-0.057,0.011-0.118,0.049-0.186,0.117c-0.068,0.066-0.18,0.101-0.337,0.101c-0.056,0-0.253,0.118-0.59,0.353
		c-0.336,0.237-0.544,0.394-0.623,0.474v0.049l-0.051,0.018c-0.247,0.112-0.375,0.169-0.388,0.169l-0.134-0.085
		c-0.057,0.023-0.124,0.091-0.202,0.202l-0.135-0.117c-0.146,0.089-0.377,0.226-0.69,0.404c-0.136-0.045-0.247-0.067-0.338-0.067
		c-0.111,0-0.168,0.011-0.168,0.033c0,0.012,0.005,0.023,0.017,0.034l-0.138,0.135c-0.078,0-0.194,0.025-0.349,0.076
		c-0.151,0.05-0.269,0.076-0.348,0.076c-0.022,0-0.059-0.016-0.112-0.042c-0.051-0.028-0.087-0.043-0.109-0.043
		c-0.033,0-0.095,0.022-0.188,0.067c-0.09,0.044-0.162,0.067-0.222,0.067c-0.045,0-0.227-0.042-0.553-0.126
		c-0.322-0.084-0.515-0.127-0.57-0.127c-0.056,0.022-0.124,0.039-0.205,0.051c0.015-0.067-0.033-0.112-0.134-0.135
		c-0.057-0.011-0.133-0.011-0.223,0l-0.033-0.034c0.078-0.247,0.118-0.331,0.118-0.253c0-0.044-0.049-0.15-0.145-0.319
		c-0.095-0.169-0.143-0.281-0.143-0.337c0-0.09,0.028-0.219,0.085-0.389c0.056-0.168,0.084-0.297,0.084-0.387
		c0-0.112-0.018-0.213-0.051-0.303c0.337-1.19,1.303-2.33,2.897-3.42v0.405l-0.051-0.035c-0.18,0-0.559,0.473-1.137,1.415
		c-0.579,0.944-0.868,1.562-0.868,1.854v0.202v0.202c0,0.573,0.371,0.859,1.109,0.859c0.482,0,1.171-0.146,2.067-0.438
		c0.962-0.315,1.568-0.635,1.816-0.961c0.469-0.168,0.918-0.523,1.345-1.063c0.423-0.538,0.638-1.049,0.638-1.532
		c0-0.583-0.181-1.039-0.539-1.364l0.151-0.151c-0.135-0.078-0.321-0.259-0.557-0.539c-0.235-0.281-0.353-0.489-0.353-0.624
		l-0.119,0.085c-0.057-0.337-0.235-0.533-0.538-0.59c-0.54-0.461-1.213-1.005-2.022-1.634c-0.112-0.271-0.253-0.428-0.421-0.472
		c0-0.091-0.017-0.22-0.051-0.389c-0.034-0.168-0.05-0.298-0.05-0.387c0-0.09,0.039-0.224,0.117-0.403
		c0.078-0.181,0.118-0.321,0.118-0.422c1.506-1.135,2.511-1.701,3.016-1.701c0.123,0,0.388,0.016,0.791,0.051
		c0.271,0.021,0.54,0.033,0.809,0.033c0.146,0.067,0.337,0.191,0.573,0.371c0,0.033,0.043,0.117,0.127,0.252
		S71.216,106.941,71.216,106.997 M76.059,113.618c0,0.764-0.225,1.601-0.674,2.509c-0.123,0.237-0.572,0.995-1.348,2.275
		c-0.146,0.022-0.32,0.129-0.522,0.32c-0.28,0.258-0.446,0.396-0.496,0.413c-0.052,0.017-0.121,0.041-0.211,0.075
		c-0.202,0.033-0.512,0.102-0.927,0.203c-0.045-0.035-0.107-0.096-0.186-0.186c-0.202-0.079-0.415-0.394-0.64-0.943
		c-0.057-0.113-0.113-0.23-0.169-0.354l0.135-0.083c0-0.092,0.011-0.221,0.034-0.389c0.022-0.169,0.034-0.298,0.034-0.388
		c0-0.247,0.159-0.603,0.479-1.069c0.32-0.466,0.479-0.728,0.479-0.783l-0.033-0.085c0.629-0.572,1.016-1.095,1.162-1.566
		c0.022-0.012,0.253-0.27,0.691-0.775c0.28-0.325,0.562-0.516,0.843-0.572l0.15-0.151h0.287c0.18,0,0.375,0.204,0.59,0.615
		C75.951,113.094,76.059,113.405,76.059,113.618 M75.283,113.754c-0.056-0.057-0.105-0.13-0.15-0.22v0.033l-0.034-0.066
		l-0.084-0.052l-0.303,0.202l-0.135-0.067c-0.36,0.438-0.759,0.838-1.196,1.196l0.117,0.084c-0.304,0.168-0.648,0.591-1.036,1.263
		c-0.388,0.675-0.581,1.187-0.581,1.534c0,0.214,0.039,0.376,0.118,0.489c0.19,0.135,0.354,0.201,0.488,0.201
		c0.045,0,0.099-0.025,0.16-0.075c0.062-0.052,0.16-0.126,0.295-0.228c0.067,0,0.28-0.167,0.641-0.505
		c0.426-0.394,0.752-0.849,0.977-1.364c0.146-0.372,0.371-0.922,0.674-1.651c-0.045-0.079-0.107-0.197-0.185-0.354
		c0.044-0.021,0.111-0.062,0.202-0.118c-0.023-0.033-0.091-0.09-0.202-0.168C75.104,113.854,75.183,113.81,75.283,113.754
		 M81.831,107.368c0,0.101-0.09,0.3-0.27,0.598s-0.319,0.48-0.421,0.548l0.152,0.051c-0.662,1.38-1.265,2.959-1.804,4.733
		c-0.056,0.067-0.14,0.229-0.252,0.479c-0.113,0.253-0.181,0.437-0.202,0.548c-0.09,0.573-0.248,1.157-0.473,1.753l-0.657,1.717
		l0.187,0.17v0.303c-0.382,0.707-0.775,1.062-1.18,1.062c-0.045,0-0.091-0.024-0.135-0.075c-0.045-0.051-0.079-0.071-0.101-0.06
		c0-0.27,0.067-0.573,0.202-0.909c0.18-0.462,0.274-0.759,0.286-0.894l0.134,0.084c0-0.304,0.125-0.785,0.371-1.448
		c0.191-0.506,0.394-0.989,0.606-1.448c0-0.157,0.065-0.397,0.194-0.716c0.129-0.321,0.193-0.565,0.193-0.734
		c0.056-0.021,0.107-0.05,0.151-0.083l0.135-0.102c-0.033-0.012-0.05-0.045-0.05-0.101c0-0.136,0.05-0.336,0.15-0.6
		c0.102-0.264,0.152-0.463,0.152-0.598c0.246-0.482,0.483-1.077,0.707-1.784c0.169-0.607,0.343-1.22,0.523-1.838
		c0.089-0.078,0.146-0.186,0.168-0.319l-0.051-0.135v-0.253c0.101-0.012,0.186-0.051,0.253-0.118l-0.135-0.05
		c0.202-0.214,0.438-0.32,0.708-0.32l-0.067,0.118l0.033,0.033C81.669,106.98,81.831,107.11,81.831,107.368 M85.952,112.691
		c0.022,0.056,0.067,0.124,0.135,0.202c-0.156,0.225-0.342,0.456-0.555,0.69c-0.169,0.438-0.354,0.876-0.557,1.314l0.033,0.152
		c-0.056,0.033-0.111,0.089-0.167,0.168l0.05,0.034c-0.067,0.089-0.157,0.218-0.27,0.386l0.202,0.204l-0.084-0.035
		c-0.079,0.012-0.135,0.062-0.169,0.152l0.018,0.034l-0.051,0.133l-0.051-0.083c-0.045,0.271-0.068,0.5-0.068,0.69l-0.134-0.033
		c-0.235,0.809-0.371,1.493-0.405,2.055l-0.033,0.034l0.084,0.117c-0.033,0.023-0.152,0.146-0.354,0.371
		c-0.134,0.146-0.286,0.23-0.454,0.253l0.134-0.051c-0.112-0.112-0.303-0.168-0.572-0.168l0.135-0.151
		c-0.045-0.022-0.117-0.057-0.219-0.102c0.382-0.686,0.567-1.258,0.556-1.719c0.135-0.156,0.225-0.397,0.27-0.724
		c0.012-0.067,0.118-0.276,0.319-0.623v-0.187l-0.084-0.102c0,0-0.19,0.197-0.572,0.591c-0.168,0.179-0.472,0.494-0.909,0.942
		c-0.091,0.102-0.377,0.394-0.86,0.878c-0.303,0.303-0.663,0.453-1.078,0.453v-0.101H80.19l-0.05-0.102
		c-0.022,0.034-0.119-0.062-0.287-0.285c0.079-0.069,0.119-0.242,0.119-0.522c0-0.146,0.045-0.242,0.134-0.288
		c-0.067-0.066-0.151-0.105-0.253-0.116c0.079-0.034,0.265-0.335,0.558-0.901c0.291-0.567,0.437-0.901,0.437-1.002l-0.084-0.136
		c0.281-0.269,0.421-0.584,0.421-0.943l0.085-0.083c0.033-0.035,0.062-0.068,0.084-0.102c-0.022-0.045-0.09-0.102-0.202-0.169
		l0.033-0.084l-0.05-0.068c0.089-0.078,0.23-0.185,0.421-0.318c0.045,0,0.106,0.008,0.186,0.023
		c0.078,0.019,0.135,0.026,0.168,0.026c0.158,0.089,0.388,0.213,0.691,0.371v0.285c0,0.057-0.017,0.085-0.051,0.085
		c-0.022-0.012-0.051-0.028-0.085-0.05c-0.056,0.179-0.285,0.499-0.689,0.96c-0.079,0-0.135,0.15-0.169,0.455
		c-0.181,0.156-0.354,0.538-0.522,1.146c-0.045,0.145-0.09,0.284-0.135,0.42l-0.067,0.018c0,0.067,0.112,0.101,0.337,0.101
		c0.112,0,0.342-0.2,0.69-0.598c0.348-0.4,0.522-0.66,0.522-0.784c0.81-0.628,1.303-1.184,1.482-1.667
		c0.158-0.112,0.373-0.413,0.648-0.901c0.275-0.489,0.413-0.823,0.413-1.002c0.09,0,0.225-0.02,0.404-0.061
		c0.18-0.039,0.314-0.058,0.404-0.058c0.112,0,0.23,0.134,0.354,0.403L85.952,112.691z M83.931,115.589
		c-0.033-0.044-0.067-0.067-0.101-0.067c-0.067,0-0.135,0.039-0.202,0.117l0.168,0.137l-0.051-0.137
		C83.778,115.594,83.842,115.578,83.931,115.589 M93.477,112.675c-0.122,0.101-0.274,0.186-0.454,0.252
		c-0.112,0-0.259,0.02-0.438,0.059c-0.18,0.041-0.304,0.061-0.371,0.061l-0.135,0.134c-0.27,0.034-0.966,0.247-2.089,0.641
		c-0.056-0.057-0.118-0.084-0.185-0.084c-0.079,0-0.247,0.079-0.505,0.235c-0.259,0.157-0.416,0.236-0.473,0.236
		c-0.258,0-0.494,0.449-0.707,1.348c-0.191,0.785-0.27,1.375-0.236,1.769c-0.056,0.033-0.183,0.347-0.379,0.936
		c-0.196,0.59-0.334,0.884-0.413,0.884s-0.123,0.018-0.135,0.051l-0.186,0.05l0.068,0.102c-0.057-0.045-0.208-0.123-0.456-0.236
		c0.023-0.09,0.034-0.161,0.034-0.219c0-0.066-0.011-0.156-0.034-0.27c0.023-0.112,0.092-0.37,0.202-0.773
		c0.092-0.315,0.135-0.568,0.135-0.759c0.124-0.158,0.259-0.499,0.405-1.028c0.146-0.528,0.219-0.904,0.219-1.128
		c0-0.214-0.146-0.32-0.438-0.32c-0.067,0-0.118,0.017-0.153,0.05l0.052-0.083c-0.09-0.057-0.202-0.084-0.337-0.084l-0.202-0.203
		l0.135-0.135v-0.102c0-0.021,0.006-0.063,0.017-0.126c0.012-0.063,0.017-0.109,0.017-0.143v-0.084c0-0.046,0.22-0.113,0.657-0.202
		c0.382-0.079,0.627-0.118,0.733-0.118s0.232-0.152,0.379-0.456c0.089-0.18,0.213-0.375,0.371-0.589l-0.085-0.152l0.085-0.083
		l-0.034-0.102c0-0.045,0.014-0.107,0.042-0.186s0.042-0.135,0.042-0.169l-0.05-0.135c0.135-0.359,0.466-1.082,0.994-2.173
		c-0.022-0.077-0.051-0.14-0.085-0.186l0.488-0.689c-0.056-0.067-0.112-0.113-0.168-0.136l0.101-0.033
		c0.112-0.416,0.248-0.686,0.403-0.809c-0.066-0.057-0.11-0.146-0.134-0.271c0.124-0.324,0.241-0.522,0.354-0.589
		c0.079-0.046,0.32-0.067,0.725-0.067c0.046,0,0.087,0.033,0.127,0.101c0.039,0.067,0.07,0.105,0.092,0.118v0.454
		c-0.235,0.292-0.634,1.13-1.196,2.511c-0.122,0-0.342,0.455-0.656,1.364c-0.371,1.078-0.578,1.651-0.623,1.719
		c0.033,0.034,0.095,0.084,0.185,0.152l0.169-0.052c0.382-0.09,0.618-0.135,0.708-0.135c0.033,0,0.087,0.009,0.159,0.026
		c0.074,0.017,0.127,0.025,0.16,0.025c0.023,0,0.039-0.007,0.051-0.018l0.168-0.034l0.674-0.15l0.186-0.136
		c0.112,0.034,0.175,0.051,0.186,0.051c0.067,0,0.259-0.034,0.572-0.102c0.315-0.067,0.495-0.101,0.539-0.101
		c0.057,0,0.142,0.012,0.254,0.033c0.111,0.022,0.19,0.034,0.235,0.034C93.285,112.501,93.365,112.585,93.477,112.675
		 M89.181,112.979c-0.033,0.011-0.072,0.016-0.117,0.016l0.051-0.067L89.181,112.979z M95.308,109.136
		c-0.057,0.079-0.151,0.248-0.287,0.506h-0.707c-0.034,0-0.129-0.157-0.287-0.471c-0.033-0.067-0.062-0.13-0.084-0.187
		c0.292-0.394,0.528-0.588,0.708-0.588C94.797,108.396,95.016,108.643,95.308,109.136 M93.707,112.894
		c-1.572,2.955-2.358,4.644-2.358,5.071v0.758c-0.045,0.057-0.068,0.112-0.068,0.168c0,0.022,0.007,0.045,0.019,0.067H91.23
		c-0.09-0.01-0.214,0.062-0.371,0.219c-0.123-0.067-0.292-0.168-0.505-0.303c0.225-1.033,0.517-1.977,0.876-2.83
		c0.112-0.181,0.259-0.46,0.438-0.843c0-0.089,0.095-0.337,0.286-0.741c0.19-0.404,0.275-0.668,0.252-0.792
		c0.191-0.09,0.287-0.18,0.287-0.269c0-0.202-0.096-0.382-0.287-0.539c0.27-0.214,0.557-0.461,0.859-0.741
		c0.28,0.022,0.443,0.185,0.489,0.488C93.589,112.82,93.64,112.917,93.707,112.894 M98.081,113.618c0,0.764-0.225,1.601-0.674,2.509
		c-0.123,0.237-0.573,0.995-1.348,2.275c-0.146,0.022-0.32,0.129-0.522,0.32c-0.28,0.258-0.446,0.396-0.497,0.413
		c-0.05,0.017-0.121,0.041-0.21,0.075c-0.202,0.033-0.512,0.102-0.927,0.203c-0.046-0.035-0.106-0.096-0.186-0.186
		c-0.202-0.079-0.415-0.394-0.641-0.943c-0.056-0.113-0.111-0.23-0.168-0.354l0.135-0.083c0-0.092,0.011-0.221,0.033-0.389
		c0.023-0.169,0.034-0.298,0.034-0.388c0-0.247,0.16-0.603,0.48-1.069c0.319-0.466,0.48-0.728,0.48-0.783l-0.034-0.085
		c0.63-0.572,1.017-1.095,1.162-1.566c0.022-0.012,0.253-0.27,0.69-0.775c0.281-0.325,0.563-0.516,0.843-0.572l0.152-0.151h0.285
		c0.181,0,0.377,0.204,0.591,0.615C97.975,113.094,98.081,113.405,98.081,113.618 M97.307,113.754
		c-0.056-0.057-0.106-0.13-0.152-0.22v0.033l-0.033-0.066l-0.085-0.052l-0.303,0.202l-0.135-0.067
		c-0.359,0.438-0.759,0.838-1.196,1.196l0.118,0.084c-0.303,0.168-0.648,0.591-1.036,1.263c-0.387,0.675-0.581,1.187-0.581,1.534
		c0,0.214,0.039,0.376,0.117,0.489c0.191,0.135,0.354,0.201,0.488,0.201c0.046,0,0.099-0.025,0.161-0.075
		c0.063-0.052,0.16-0.126,0.295-0.228c0.067,0,0.28-0.167,0.64-0.505c0.427-0.394,0.753-0.849,0.977-1.364
		c0.146-0.372,0.371-0.922,0.675-1.651c-0.046-0.079-0.106-0.197-0.186-0.354c0.045-0.021,0.112-0.062,0.202-0.118
		c-0.021-0.033-0.09-0.09-0.202-0.168C97.127,113.854,97.205,113.81,97.307,113.754 M103.183,112.271
		c-0.022,0.021-0.039,0.033-0.051,0.033l0.034-0.066C103.178,112.248,103.183,112.259,103.183,112.271 M104.413,112.522
		c-0.057,0.091-0.102,0.181-0.135,0.27l-0.136,0.287c-0.033,0.146-0.089,0.365-0.168,0.657c-0.146,0.449-0.388,1.056-0.725,1.819
		l-0.269,0.624c-0.663,1.525-0.956,2.446-0.877,2.761c-0.157,0.158-0.31,0.236-0.454,0.236c-0.067,0-0.155-0.024-0.262-0.075
		s-0.194-0.076-0.261-0.076c0.01-0.077,0.078-0.18,0.201-0.303l-0.051-0.051l-0.067,0.018c0.495-1.191,1.067-2.746,1.719-4.667
		h0.018c0.034-0.033,0.05-0.096,0.05-0.185l-0.016-0.051l-0.085,0.084h-0.084c-0.102,0.09-0.245,0.222-0.43,0.396
		c-0.187,0.174-0.335,0.318-0.447,0.43l0.018,0.118c-0.314,0.056-0.596,0.342-0.843,0.859c-0.146,0-0.32,0.122-0.522,0.37
		c-0.201,0.247-0.333,0.371-0.396,0.371s-0.277,0.275-0.648,0.824c-0.225,0.337-0.444,0.643-0.657,0.911h-0.286
		c-0.091,0-0.194-0.121-0.312-0.363c-0.119-0.241-0.233-0.379-0.346-0.413c0.191-0.168,0.41-0.415,0.657-0.741V116.6
		c0-0.19,0.096-0.427,0.286-0.707c0-0.023-0.012-0.058-0.033-0.101c0-0.169,0.08-0.438,0.243-0.809
		c0.163-0.371,0.245-0.646,0.245-0.826c0-0.045-0.006-0.115-0.018-0.21c-0.011-0.097-0.017-0.166-0.017-0.211
		c0-0.225,0.081-0.427,0.245-0.607c0.163-0.179,0.357-0.28,0.58-0.303c0.349,0.202,0.523,0.421,0.523,0.657
		c-0.191,0.438-0.467,1.102-0.826,1.987l0.085,0.118c0.741-0.707,1.83-1.779,3.268-3.218v-0.101
		c0.045-0.046,0.096-0.112,0.151-0.202c0.057-0.091,0.119-0.135,0.187-0.135c0.056,0,0.137,0.011,0.243,0.033
		s0.188,0.034,0.245,0.034c0.168,0.169,0.309,0.337,0.42,0.505L104.413,112.522z M108.771,112.253c0,0.057-0.022,0.135-0.068,0.236
		c-0.045,0.101-0.067,0.174-0.067,0.219c-0.19,0-0.286,0.096-0.286,0.286c-0.067,0-0.163-0.009-0.286-0.025
		c-0.124-0.016-0.219-0.024-0.286-0.024l-0.304,1.213c-0.37,1.505-0.77,2.678-1.195,3.521c-0.102,0.077-0.54,0.628-1.315,1.65h-0.15
		l-0.219,0.168h-0.539c-0.035,0-0.073-0.024-0.119-0.075c-0.045-0.05-0.09-0.076-0.135-0.076c-0.134,0-0.27-0.349-0.404-1.044
		l0.135-0.169c0.067,0,0.338,0.062,0.809,0.186l0.118,0.151v-0.034l0.136-0.033l0.623-0.472c0.056-0.236,0.246-0.685,0.572-1.347
		c0.246-0.528,0.371-1.067,0.371-1.618c0.146-0.135,0.219-0.427,0.219-0.875c0-0.091,0.03-0.22,0.093-0.388
		c0.062-0.169,0.092-0.298,0.092-0.389c0.124-0.313,0.186-0.494,0.186-0.539c0-0.101-0.033-0.18-0.101-0.235
		c0.078-0.112,0.18-0.169,0.303-0.169c0.045,0,0.265-0.252,0.657-0.758c0.022-0.045,0.022-0.073,0-0.084
		c0.079,0,0.196-0.006,0.354-0.018c0.156-0.011,0.274-0.017,0.354-0.017c0.101,0,0.202,0.099,0.304,0.295
		C108.719,111.987,108.771,112.142,108.771,112.253"/>
	<path fill="#006FBA" d="M113.624,105.787c0.063-0.024,0.121-0.018,0.172,0.022c0.053,0.038,0.091,0.093,0.117,0.166
		c0.025,0.071,0.037,0.152,0.032,0.245c-0.005,0.092-0.032,0.178-0.08,0.26c0.002,0.001-0.023,0.025-0.081,0.076
		c-0.059,0.051-0.136,0.122-0.232,0.216c-0.099,0.097-0.213,0.211-0.343,0.346c-0.131,0.134-0.269,0.287-0.411,0.459
		s-0.286,0.36-0.431,0.565s-0.281,0.424-0.41,0.655c-0.175,0.32-0.324,0.641-0.447,0.963s-0.199,0.612-0.226,0.872
		c-0.029,0.277-0.02,0.559,0.03,0.843c0.049,0.285,0.123,0.537,0.22,0.757c0.085,0.193,0.191,0.345,0.322,0.456
		c0.129,0.11,0.254,0.2,0.375,0.27s0.224,0.127,0.308,0.171c0.085,0.045,0.125,0.096,0.118,0.15
		c-0.002,0.031-0.032,0.054-0.088,0.068c-0.056,0.014-0.121,0.021-0.199,0.021c-0.077,0-0.157-0.007-0.24-0.022
		c-0.083-0.013-0.151-0.027-0.207-0.044c-0.17-0.049-0.317-0.127-0.443-0.234c-0.125-0.108-0.23-0.224-0.317-0.349
		c-0.086-0.124-0.156-0.251-0.21-0.378c-0.054-0.129-0.093-0.238-0.117-0.328c0,0-0.008-0.033-0.025-0.099
		c-0.017-0.066-0.032-0.162-0.047-0.288c-0.016-0.128-0.025-0.284-0.029-0.469c-0.005-0.185,0.006-0.396,0.03-0.634
		c0.035-0.319,0.102-0.631,0.2-0.936c0.1-0.305,0.22-0.596,0.36-0.876c0.141-0.279,0.295-0.545,0.463-0.799
		c0.169-0.254,0.339-0.489,0.51-0.708c0.172-0.217,0.337-0.413,0.496-0.588c0.16-0.175,0.303-0.324,0.424-0.447
		c0.123-0.122,0.222-0.217,0.296-0.283S113.624,105.787,113.624,105.787 M116.463,110.035c-0.09,0-0.202,0.002-0.335,0.011
		c-0.133,0.007-0.271,0.013-0.413,0.015c-0.142,0.002-0.282,0.002-0.42,0s-0.264-0.011-0.374-0.025
		c-0.021,0.105-0.044,0.226-0.074,0.362c-0.029,0.139-0.063,0.273-0.099,0.408c-0.035,0.135-0.073,0.262-0.115,0.383
		c-0.041,0.12-0.08,0.214-0.116,0.283c-0.047,0.096-0.088,0.163-0.124,0.204c-0.035,0.039-0.067,0.06-0.095,0.06
		s-0.052-0.017-0.071-0.05c-0.021-0.032-0.033-0.07-0.041-0.116c0-0.049-0.006-0.104-0.019-0.163
		c-0.011-0.062-0.018-0.116-0.018-0.166c0-0.059,0.002-0.136,0.007-0.228c0.003-0.093,0.01-0.196,0.021-0.308
		c0.009-0.111,0.02-0.231,0.032-0.356c0.012-0.124,0.028-0.245,0.047-0.359c-0.138-0.01-0.273-0.014-0.406-0.011
		s-0.25,0.009-0.353,0.019c-0.122,0.011-0.237,0.022-0.345,0.038c-0.039-0.021-0.074-0.06-0.104-0.117s-0.051-0.122-0.063-0.199
		c-0.012-0.073-0.014-0.152-0.006-0.235c0.008-0.082,0.03-0.16,0.065-0.235c0.138-0.025,0.282-0.045,0.433-0.06
		c0.127-0.011,0.271-0.016,0.434-0.02c0.162-0.002,0.326,0.009,0.492,0.034l0.262-1.393c0.035-0.021,0.078-0.036,0.128-0.046
		c0.049-0.01,0.103-0.008,0.159,0.005c0.058,0.012,0.115,0.039,0.173,0.082c0.057,0.043,0.111,0.105,0.162,0.19l-0.219,1.206
		c0.091,0.009,0.197,0.029,0.317,0.057s0.242,0.059,0.365,0.093c0.122,0.036,0.236,0.072,0.344,0.108
		c0.106,0.037,0.193,0.075,0.262,0.109c0.099,0.06,0.171,0.112,0.216,0.157c0.046,0.045,0.069,0.085,0.072,0.12
		c0.001,0.034-0.015,0.064-0.048,0.09C116.563,110.008,116.519,110.024,116.463,110.035 M117.719,106.769
		c-0.001-0.044,0-0.097,0.004-0.158c0.004-0.063,0.017-0.126,0.039-0.188c0.022-0.063,0.061-0.118,0.111-0.166
		c0.05-0.046,0.124-0.069,0.219-0.071c0.105,0.174,0.208,0.39,0.311,0.647c0.102,0.258,0.183,0.543,0.247,0.852
		c0.063,0.309,0.096,0.636,0.103,0.978c0.006,0.343-0.033,0.687-0.117,1.029c-0.17,0.709-0.407,1.304-0.714,1.781
		c-0.306,0.479-0.661,0.858-1.065,1.141c-0.057,0.036-0.126,0.078-0.21,0.125c-0.085,0.047-0.176,0.093-0.274,0.138
		s-0.202,0.088-0.31,0.127c-0.107,0.04-0.211,0.068-0.309,0.09c-0.199,0.057-0.34,0.084-0.423,0.083
		c-0.084-0.001-0.122-0.021-0.119-0.057c0.003-0.035,0.041-0.084,0.113-0.148c0.071-0.063,0.161-0.134,0.268-0.213
		c0.078-0.062,0.163-0.124,0.256-0.188c0.093-0.062,0.188-0.128,0.283-0.195c0.094-0.067,0.188-0.136,0.281-0.207
		c0.092-0.069,0.179-0.141,0.262-0.213c0.141-0.142,0.28-0.279,0.421-0.412c0.141-0.135,0.274-0.292,0.4-0.472
		c0.127-0.18,0.243-0.396,0.354-0.647c0.109-0.253,0.203-0.565,0.281-0.938c0.061-0.288,0.089-0.565,0.083-0.836
		c-0.004-0.271-0.028-0.522-0.074-0.759c-0.045-0.237-0.106-0.45-0.183-0.643C117.88,107.056,117.801,106.896,117.719,106.769"/>
	<path fill="#FFFFFF" d="M89.761,71.371c0.753,0,1.389,0.05,1.909,0.148c0.518,0.1,0.905,0.263,1.16,0.491
		c0.508,0.458,0.761,1.232,0.761,2.324v0.325H92.39c-0.009-0.268-0.021-0.489-0.034-0.666c-0.016-0.18-0.045-0.354-0.087-0.527
		c-0.045-0.177-0.114-0.322-0.208-0.437c-0.156-0.219-0.409-0.356-0.754-0.414c-0.343-0.06-0.859-0.088-1.55-0.088h-0.301
		c-0.497,0-0.916,0.028-1.256,0.083c-0.338,0.058-0.622,0.186-0.844,0.388c-0.136,0.122-0.229,0.305-0.281,0.546
		C87.026,73.789,87,74.106,87,74.501c0,0.947,0.204,1.54,0.614,1.776c0.195,0.116,0.426,0.197,0.694,0.238
		c0.268,0.046,0.569,0.068,0.907,0.073c0.339,0.005,0.65,0.011,0.94,0.016c0.256,0.021,0.531,0.039,0.829,0.058
		c0.299,0.018,0.571,0.047,0.819,0.088c0.245,0.039,0.464,0.094,0.651,0.159c0.189,0.067,0.363,0.159,0.52,0.274
		c0.355,0.252,0.576,0.604,0.667,1.052s0.149,0.979,0.179,1.601c0,0.416-0.033,0.816-0.104,1.204
		c-0.066,0.385-0.168,0.72-0.309,1.006c-0.141,0.283-0.312,0.505-0.517,0.662c-0.353,0.24-0.797,0.391-1.336,0.452
		c-0.536,0.062-1.207,0.092-2.011,0.092h-0.439c-0.563,0-1.064-0.044-1.499-0.13c-0.438-0.086-0.806-0.265-1.104-0.541
		c-0.194-0.16-0.348-0.363-0.457-0.601c-0.108-0.238-0.186-0.499-0.233-0.777c-0.093-0.552-0.125-1.131-0.125-1.692h1.283
		c0,0.509-0.007,0.998,0.081,1.508c0.054,0.308,0.163,0.542,0.33,0.704c0.21,0.193,0.52,0.308,0.93,0.342
		c0.262,0.021,0.651,0.03,1.173,0.03c0.354,0,0.626,0.011,0.817,0.031c0.896-0.041,1.494-0.174,1.787-0.403
		c0.205-0.152,0.34-0.373,0.405-0.67c0.063-0.295,0.097-0.668,0.097-1.123V79.74c0-0.72-0.126-1.212-0.376-1.477
		c-0.141-0.167-0.357-0.275-0.654-0.33c-0.295-0.053-0.7-0.099-1.217-0.141c-0.351-0.016-0.695-0.028-1.041-0.041
		c-0.342-0.014-0.686-0.04-1.021-0.079c-0.338-0.035-0.662-0.104-0.969-0.194c-0.311-0.092-0.571-0.222-0.787-0.391
		c-0.268-0.228-0.456-0.529-0.565-0.901c-0.107-0.375-0.169-0.832-0.184-1.375c0-0.653,0.066-1.218,0.2-1.685
		c0.131-0.472,0.325-0.822,0.581-1.056c0.228-0.208,0.507-0.361,0.838-0.464c0.331-0.101,0.669-0.166,1.019-0.194
		C88.764,71.385,89.214,71.371,89.761,71.371 M84.437,79.901c0,0.645-0.066,1.19-0.198,1.632c-0.133,0.445-0.345,0.796-0.633,1.048
		c-0.181,0.154-0.388,0.278-0.624,0.374c-0.235,0.097-0.487,0.164-0.764,0.205c-0.274,0.04-0.558,0.066-0.848,0.076
		c-0.291,0.011-0.692,0.016-1.209,0.016h-0.851c-0.452,0-0.838-0.019-1.159-0.058c-0.322-0.038-0.629-0.119-0.924-0.244
		c-0.296-0.125-0.55-0.296-0.765-0.52c-0.293-0.313-0.512-0.723-0.654-1.237c-0.146-0.518-0.216-1.181-0.216-1.991v-3.841
		c0-0.698,0.07-1.31,0.216-1.83c0.143-0.521,0.352-0.945,0.629-1.275c0.166-0.188,0.366-0.349,0.597-0.481
		c0.233-0.133,0.5-0.231,0.801-0.299c0.3-0.07,0.595-0.104,0.887-0.104h2.896c0.573,0,1.069,0.1,1.49,0.294
		c0.421,0.195,0.742,0.491,0.967,0.887c0.221,0.396,0.332,0.876,0.332,1.438v0.893h-1.199v-0.503c0-0.676-0.1-1.128-0.3-1.349
		c-0.147-0.178-0.35-0.302-0.607-0.369c-0.255-0.068-0.58-0.106-0.979-0.114s-0.727-0.014-0.987-0.019
		c-0.227,0.005-0.521,0.008-0.882,0.008c-0.361,0-0.659,0.008-0.893,0.026c-0.235,0.018-0.455,0.063-0.657,0.13
		c-0.2,0.067-0.376,0.172-0.526,0.307c-0.189,0.164-0.331,0.424-0.421,0.785c-0.091,0.361-0.137,0.879-0.137,1.552v4.24
		c0,1.012,0.215,1.685,0.641,2.024c0.234,0.193,0.513,0.326,0.834,0.396c0.958,0.216,2.299,0.191,3.285,0.081
		c0.257-0.028,0.49-0.073,0.695-0.133c0.203-0.062,0.377-0.156,0.515-0.284c0.159-0.121,0.271-0.321,0.343-0.6
		c0.069-0.281,0.104-0.645,0.104-1.097v-1.465h-3.431v-1.188h4.631V79.901z M65.104,71.462h2.017l5.997,10.701h0.028V71.462h1.229
		V83.16h-1.981L66.36,72.552h-0.028V83.16h-1.229V71.462z M61.917,71.462h1.2V83.16h-1.2V71.462z M56.992,71.462
		c0.364,0,0.695,0.029,0.998,0.084c0.302,0.058,0.588,0.147,0.853,0.275c0.264,0.128,0.485,0.294,0.661,0.501
		c0.42,0.479,0.628,1.353,0.628,2.621c0,1.029-0.138,1.757-0.411,2.179c-0.311,0.442-0.794,0.707-1.451,0.799v0.03
		c0.523,0.063,0.943,0.281,1.259,0.658c0.317,0.38,0.476,0.85,0.476,1.414v3.137h-1.233v-2.558c0-0.334-0.033-0.65-0.098-0.94
		c-0.065-0.294-0.167-0.52-0.307-0.681c-0.246-0.321-0.736-0.482-1.469-0.482h-3.854v4.661h-1.201V71.462H56.992z M57.018,72.619
		h-3.945v4.692h3.798c0.269,0,0.5-0.013,0.688-0.041c0.188-0.028,0.36-0.081,0.519-0.161c0.157-0.079,0.302-0.193,0.438-0.346
		c0.264-0.315,0.398-0.876,0.398-1.686v-0.387c0-0.361-0.018-0.668-0.053-0.923c-0.036-0.253-0.112-0.455-0.233-0.608
		c-0.136-0.177-0.353-0.312-0.655-0.403C57.67,72.666,57.352,72.619,57.018,72.619 M45.064,71.462h1.699l4.029,11.698H49.53
		l-0.872-2.469H43.25l-0.821,2.469h-1.262L45.064,71.462z M43.592,79.589h4.74l-2.4-7.037L43.592,79.589z M33.361,83.16V71.462
		h6.886v1.157h-5.685v3.991h5.44v1.09h-5.44v4.304h5.685v1.156H33.361z M29.662,71.462c0.826,0,1.412,0.239,1.752,0.721
		c0.341,0.479,0.519,1.175,0.534,2.088c0,0.889-0.111,1.525-0.333,1.911c-0.221,0.384-0.557,0.668-1.007,0.844
		c0.512,0.112,0.888,0.323,1.133,0.638c0.243,0.312,0.393,0.659,0.446,1.043c0.054,0.385,0.08,0.886,0.08,1.504
		c-0.014,0.585-0.103,1.095-0.264,1.526c-0.165,0.432-0.424,0.777-0.782,1.035c-0.359,0.26-0.83,0.389-1.416,0.389h-5.769V71.462
		H29.662z M28.85,72.619h-3.614v3.955h3.669c0.688,0,1.167-0.154,1.431-0.458c0.167-0.198,0.273-0.445,0.316-0.743
		c0.045-0.3,0.066-0.669,0.066-1.103c0-0.574-0.1-0.98-0.299-1.217c-0.146-0.18-0.332-0.294-0.563-0.351
		C29.626,72.648,29.291,72.619,28.85,72.619 M25.236,77.73v4.273h4.104c0.398,0,0.71-0.055,0.937-0.167
		c0.228-0.11,0.399-0.267,0.514-0.462c0.114-0.195,0.183-0.397,0.209-0.605c0.026-0.209,0.039-0.486,0.039-0.837
		c0-1.469-0.515-2.202-1.543-2.202H25.236z"/>
	<path fill="#FFFFFF" d="M95.732,80.495c-0.762,0-1.379,0.617-1.379,1.379c0,0.761,0.617,1.378,1.379,1.378
		c0.761,0,1.378-0.617,1.378-1.378C97.11,81.112,96.493,80.495,95.732,80.495 M95.732,83.058c-0.653,0-1.184-0.53-1.184-1.184
		s0.53-1.184,1.184-1.184s1.183,0.53,1.183,1.184S96.386,83.058,95.732,83.058"/>
	<path fill="#FFFFFF" d="M96.248,82.665h-0.135c-0.025,0-0.038,0-0.056-0.027l-0.377-0.629h-0.02h-0.035
		c-0.069,0-0.12,0-0.231-0.006v0.619c0,0.024-0.016,0.043-0.039,0.043h-0.113c-0.023,0-0.039-0.019-0.039-0.043v-1.477
		c0-0.031,0.012-0.039,0.052-0.046c0.091-0.011,0.249-0.017,0.371-0.017c0.334,0,0.591,0.111,0.591,0.453v0.015
		c0,0.236-0.137,0.376-0.332,0.426l0.385,0.642c0.004,0.007,0.006,0.013,0.006,0.013C96.275,82.656,96.267,82.665,96.248,82.665
		 M96.026,81.536c0-0.211-0.137-0.28-0.4-0.28c-0.065,0-0.182,0-0.231,0.006v0.579c0.092,0.001,0.183,0.004,0.231,0.004
		c0.259,0,0.4-0.065,0.4-0.294V81.536z"/>
</g>
</svg>
