<svg width="162px" height="36px" xmlns="http://www.w3.org/2000/svg" viewBox="0 0 1000 240"><defs><style>.cls-1{fill:#ee312d;}</style></defs><title>Megadyne_Logo_RGB_Red</title><path class="cls-1" d="M460.83,202.64l17.64-100H560L555.84,126H507.08l-2.49,14.3h41.25l-4,23.33H500.56l-2.78,15.7h50.69l-4.16,23.33Zm-35.21-45.42,2.78-22.77L434,102.64h31.39l-17.64,100H417L390.89,148.2,388.12,171l-5.56,31.66H351.17l17.64-100H399.5ZM312.48,202.64H279.7l6.39-36.39-26-63.61h36.67L308,136.53l23.2-33.89h36.11L319,165.69ZM195,179.31H202c15.28,0,25-8.06,28.34-26.95,3.61-20.83-2.22-26.38-19.73-26.38h-6.24Zm-36.95,23.33,17.64-100h43.89c32.22,0,49.59,15,43.75,47.92-6.66,37.64-30.13,52.08-62.22,52.08Zm-44.52-69.86L97.05,168.61h20.69ZM49,202.64l53.47-100h33.33l18.2,100H121.35l-1.53-13.19H87.18l-6.11,13.19Zm-2.3.28H25.58l.41-9.86c-6.52,6.39-16.53,12.22-32.22,12.22-25.56,0-45.56-16.53-39.44-51.39C-40.12,122-16.23,100,16.13,100c24,0,41.11,12.5,40.84,37.08H25.85c-.83-8.19-6.11-12.63-14.58-12.63-12.92,0-21.11,11.66-24.17,29.3-2.5,14.17-.27,27.09,16.25,27.09,6.67,0,16-4.59,18.75-11.53H7.66l3.89-21.67H56.41Zm-187.16-.28,17.63-100h81.53L-45.47,126H-94.22l-2.51,14.3h41.25l-4,23.33h-41.25l-2.78,15.7h50.69L-57,202.64Zm-127,0,17.64-100h39.59l6.66,62.36L-175,102.64h39.59l-17.64,100H-182.5l5.42-30.56,3.19-15.55,4.72-18.06h-.27l-29.45,64.17h-22.78l-6.94-64.17h-.28L-230,153.2l-2.08,15.55-6,33.89Z" transform="translate(440 -10)"/><path class="cls-1" d="M-380.4,225h-30.71V175H-380c16.11,0,26.11,7.5,26.11,24,0,18.81-10.49,26-26.53,26m-30.71-110h19.79l8.82,31.18,8.82-31.18h19.79v50h-14.72V149.72l.21-7.77.83-9h-.14L-376.8,165h-11.4l-9.09-32.08h-.14l.69,7.36.35,7.78V165h-14.72ZM-335,100h-95a10,10,0,0,0-10,10v82.5A57.5,57.5,0,0,0-382.5,250,57.5,57.5,0,0,0-325,192.5V110a10,10,0,0,0-10-10m-35.26,99.85c0,9.45-4.17,13.48-11.8,13.48h-12.66V186.66h12.31c8.75,0,12.15,2.78,12.15,13.19m19-113.6A16.25,16.25,0,0,1-367.5,70a16.26,16.26,0,0,1,16.25-16.25A16.25,16.25,0,0,1-335,70a16.24,16.24,0,0,1-16.25,16.25m-50.87,0A20,20,0,0,0-393.75,70a20,20,0,0,0-20-20H-420a20.13,20.13,0,0,0-4.75.59l19.21-22.35c0,.58-.09,1.16-.09,1.76a20,20,0,0,0,20,20h6.25A20,20,0,0,0-360,34.9L-347,50h-4.23a20,20,0,0,0-20,20,20,20,0,0,0,8.37,16.25Zm-17.88,0A16.25,16.25,0,0,1-436.25,70,16.26,16.26,0,0,1-420,53.75,16.25,16.25,0,0,1-403.75,70,16.24,16.24,0,0,1-420,86.25m34.37-72.5A16.25,16.25,0,0,1-369.37,30a16.26,16.26,0,0,1-16.26,16.25A16.26,16.26,0,0,1-401.88,30a16.25,16.25,0,0,1,16.25-16.25m0-3.75a19.94,19.94,0,0,0-15.09,6.9L-435.21,57A19.92,19.92,0,0,0-440,70a20,20,0,0,0,20,20h75a20,20,0,0,0,20-20,19.92,19.92,0,0,0-4.79-13L-364.28,16.9A19.94,19.94,0,0,0-379.37,10Z" transform="translate(440 -10)"/></svg>
